<svg width="110" height="110" viewBox="0 0 110 110" fill="none" xmlns="http://www.w3.org/2000/svg">
<path d="M89.5055 12.1506C89.0511 11.7838 88.5912 11.4261 88.1259 11.0757L11.0757 88.1259C11.4261 88.5895 11.7838 89.0494 12.1506 89.5056L89.5055 12.1506Z" fill="white"/>
<path d="M70.6828 2.2575C70.0441 2.0677 69.4017 1.89431 68.7575 1.72824L1.73004 68.7557C1.89611 69.3999 2.06949 70.0423 2.25928 70.6811L70.6828 2.2575Z" fill="white"/>
<path d="M83.9048 8.17949C83.3956 7.86559 82.8828 7.56081 82.3663 7.26517L7.26703 82.3645C7.56267 82.8809 7.86744 83.3938 8.18134 83.9029L83.9048 8.17949Z" fill="white"/>
<path d="M77.656 4.85627C77.0884 4.59895 76.5172 4.35257 75.9424 4.11533L4.11707 75.9406C4.35249 76.5155 4.60068 77.0867 4.858 77.6543L77.656 4.85627Z" fill="white"/>
<path d="M62.8245 0.543843C62.0963 0.43982 61.3664 0.352229 60.6364 0.277405L0.277344 60.6364C0.352167 61.3682 0.439766 62.0964 0.543789 62.8245L62.8245 0.543843Z" fill="white"/>
<path d="M93.9001 16.0998C93.6957 15.8955 93.4858 15.6947 93.2778 15.494L15.494 93.2796C15.6947 93.4877 15.8955 93.6957 16.0998 93.9001C16.3061 94.1045 16.5141 94.3053 16.7203 94.506L94.506 16.7203C94.3052 16.5123 94.1063 16.3042 93.9001 16.0998Z" fill="white"/>
<path d="M53.7964 0C52.9387 0.0182497 52.0828 0.0583905 51.2251 0.11679L0.1168 51.2251C0.058401 52.081 0.0200747 52.9387 0 53.7964L53.7964 0Z" fill="white"/>
<path d="M1.33038 42.8941L42.8941 1.33041C41.7863 1.57861 40.684 1.86331 39.589 2.18086L2.18082 39.5909C1.86327 40.684 1.5804 41.7863 1.33038 42.8941Z" fill="white"/>
<path d="M109.883 58.7749C109.942 57.919 109.982 57.0613 110 56.2036L56.2036 109.998C57.0613 109.98 57.9191 109.94 58.775 109.881L109.883 58.7749Z" fill="white"/>
<path d="M109.723 49.3618C109.648 48.6318 109.56 47.9018 109.456 47.1736L47.1754 109.456C47.9036 109.56 48.6336 109.648 49.3636 109.723L109.723 49.3618Z" fill="white"/>
<path d="M27.0588 7.59549C23.1479 9.90408 19.4615 12.7383 16.0999 16.0999C12.7401 19.4596 9.90593 23.1461 7.59552 27.057L27.0588 7.59549Z" fill="white"/>
<path d="M107.819 70.4091C108.137 69.3141 108.421 68.2119 108.67 67.1041L67.106 108.668C68.2137 108.42 69.316 108.135 70.411 107.817L107.819 70.4091Z" fill="white"/>
<path d="M82.943 102.403C86.8539 100.094 90.5403 97.2599 93.9019 93.8983C97.2617 90.5385 100.096 86.8521 102.406 82.9393L82.943 102.403Z" fill="white"/>
<path d="M102.735 27.6355C102.437 27.1191 102.134 26.6062 101.819 26.097L26.0953 101.821C26.6044 102.134 27.1173 102.439 27.6337 102.737L102.735 27.6355Z" fill="white"/>
<path d="M98.9243 21.8741C98.5739 21.4105 98.2162 20.9507 97.8494 20.4944L20.4963 97.8494C20.9507 98.2162 21.4124 98.5739 21.876 98.9242L98.9243 21.8741Z" fill="white"/>
<path d="M108.27 41.2425C108.104 40.5983 107.931 39.9559 107.741 39.3171L39.319 107.741C39.9578 107.93 40.6002 108.104 41.2444 108.27L108.27 41.2425Z" fill="white"/>
<path d="M105.885 34.0575C105.649 33.4827 105.401 32.9115 105.144 32.3439L32.344 105.144C32.9116 105.401 33.4828 105.647 34.0576 105.885L105.885 34.0575Z" fill="white"/>
</svg>
