<svg width="22" height="21" viewBox="0 0 22 21" fill="none" xmlns="http://www.w3.org/2000/svg">
<path d="M9.9042 0.10025L19.8037 1.51446L21.2179 11.414L12.0255 20.6063C11.635 20.9969 11.0019 20.9969 10.6113 20.6063L0.711843 10.7069C0.321313 10.3163 0.321313 9.6832 0.711843 9.2926L9.9042 0.10025ZM10.6113 2.22157L2.83316 9.9997L11.3184 18.485L19.0966 10.7069L18.036 3.28223L10.6113 2.22157ZM12.7327 8.5855C11.9516 7.80448 11.9516 6.53815 12.7327 5.7571C13.5137 4.97606 14.78 4.97606 15.5611 5.7571C16.3421 6.53815 16.3421 7.80448 15.5611 8.5855C14.78 9.3666 13.5137 9.3666 12.7327 8.5855Z" fill="#FF4242"/>
</svg>
