<svg width="41" height="57" viewBox="0 0 41 57" fill="none" xmlns="http://www.w3.org/2000/svg">
<path d="M36.8255 18.6248H22.4694V10.3403C24.1999 9.58031 25.4107 7.85766 25.4107 5.84756C25.4107 3.13659 23.2116 0.9375 20.5007 0.9375C17.7897 0.9375 15.5906 3.13659 15.5906 5.84756C15.5906 7.85766 16.8014 9.58031 18.5319 10.3403V18.6248H4.17578C2.00031 18.6248 0.238281 20.3868 0.238281 22.5623V52.125C0.238281 54.3005 2.00031 56.0625 4.17578 56.0625H36.8236C38.999 56.0625 40.7611 54.3005 40.7611 52.125V22.5623C40.763 20.3868 38.999 18.6248 36.8255 18.6248ZM26.2632 30.6322C26.2632 29.5454 27.1432 28.6634 28.2319 28.6634C29.3207 28.6634 30.2007 29.5454 30.2007 30.6322V31.5417C30.2007 32.6285 29.3207 33.5105 28.2319 33.5105C27.1432 33.5105 26.2632 32.6285 26.2632 31.5417V30.6322ZM10.8006 30.6322C10.8006 29.5454 11.6807 28.6634 12.7694 28.6634C13.8581 28.6634 14.7381 29.5454 14.7381 30.6322V31.5417C14.7381 32.6285 13.8581 33.5105 12.7694 33.5105C11.6807 33.5105 10.8006 32.6285 10.8006 31.5417V30.6322ZM30.3602 43.1888C27.6728 45.0158 24.1704 46.0219 20.5007 46.0219C16.8309 46.0219 13.3285 45.0158 10.6412 43.1888C9.74341 42.5766 9.50912 41.354 10.1194 40.4543C10.7317 39.5585 11.9602 39.3222 12.856 39.9345C14.8956 41.3225 17.6105 42.0863 20.5007 42.0863C23.3908 42.0863 26.1057 41.3225 28.1453 39.9345C29.0431 39.3222 30.2696 39.5585 30.8819 40.4543C31.4922 41.354 31.2579 42.5785 30.3602 43.1888Z" fill="white"/>
</svg>
