<?xml version="1.0" encoding="UTF-8"?>
<svg version="1.1" xmlns="http://www.w3.org/2000/svg" width="64" height="64">
<path d="M0 0 C1.2463623 0.01047363 2.49272461 0.02094727 3.77685547 0.03173828 C4.77143265 0.03598312 4.77143265 0.03598312 5.78610229 0.04031372 C7.9055988 0.05151643 10.02467401 0.07662027 12.14404297 0.10205078 C13.58023479 0.11208051 15.01643322 0.12120637 16.45263672 0.12939453 C19.97490925 0.15145578 23.496935 0.18598585 27.01904297 0.22705078 C27.01904297 1.21705078 27.01904297 2.20705078 27.01904297 3.22705078 C17.77904297 3.22705078 8.53904297 3.22705078 -0.98095703 3.22705078 C-0.98095703 21.04705078 -0.98095703 38.86705078 -0.98095703 57.22705078 C12.54904297 56.89705078 26.07904297 56.56705078 40.01904297 56.22705078 C40.34904297 47.64705078 40.67904297 39.06705078 41.01904297 30.22705078 C42.00904297 30.22705078 42.99904297 30.22705078 44.01904297 30.22705078 C44.04370042 34.33877638 44.06188255 38.45047356 44.07397461 42.56225586 C44.07901376 43.96200306 44.08584513 45.36174498 44.09448242 46.76147461 C44.10656617 48.76950855 44.11174104 50.77758036 44.11669922 52.78564453 C44.12193604 53.99534912 44.12717285 55.20505371 44.13256836 56.45141602 C44.01904297 59.22705078 44.01904297 59.22705078 43.01904297 60.22705078 C41.58713436 60.33037005 40.15021494 60.36554964 38.71459961 60.37231445 C37.80017593 60.37869431 36.88575226 60.38507416 35.94361877 60.39164734 C34.45148109 60.39331657 34.45148109 60.39331657 32.92919922 60.39501953 C31.91433945 60.39834793 30.89947968 60.40167633 29.85386658 60.40510559 C27.70263117 60.41017928 25.55138787 60.41251378 23.40014648 60.41235352 C20.09915261 60.41453912 16.79849321 60.43268785 13.49755859 60.45166016 C11.41227328 60.45459409 9.32698638 60.45657889 7.24169922 60.45751953 C6.248965 60.46470505 5.25623077 60.47189056 4.2334137 60.47929382 C3.31583786 60.47621719 2.39826202 60.47314056 1.45288086 60.4699707 C0.64315323 60.47139572 -0.1665744 60.47282074 -1.00083923 60.47428894 C-2.98095703 60.22705078 -2.98095703 60.22705078 -4.98095703 58.22705078 C-5.23492432 55.87402344 -5.23492432 55.87402344 -5.23974609 52.89111328 C-5.24605042 51.77655762 -5.25235474 50.66200195 -5.2588501 49.51367188 C-5.25480164 48.30533691 -5.25075317 47.09700195 -5.24658203 45.85205078 C-5.24849548 44.61664551 -5.25040894 43.38124023 -5.25238037 42.10839844 C-5.25409314 38.82113671 -5.24602402 35.53406291 -5.23486328 32.24682617 C-5.23096101 30.22910548 -5.23484874 28.21155877 -5.24169922 26.19384766 C-5.25401707 22.3298325 -5.25256681 18.4660765 -5.24658203 14.60205078 C-5.25063049 13.39371582 -5.25467896 12.18538086 -5.2588501 10.94042969 C-5.25254578 9.82587402 -5.24624146 8.71131836 -5.23974609 7.56298828 C-5.23815491 6.57862793 -5.23656372 5.59426758 -5.23492432 4.58007812 C-4.83129432 0.8404137 -3.65169592 0.278139 0 0 Z " fill="#FFFFFF" transform="translate(6.98095703125,3.77294921875)"/>
<path d="M0 0 C0.99 0 1.98 0 3 0 C3.18433594 0.60328125 3.36867188 1.2065625 3.55859375 1.828125 C5.39264254 6.90689582 5.39264254 6.90689582 9.26953125 10.48828125 C11.49123381 11.4504359 13.68534217 12.29274344 16 13 C15.73896484 13.90492187 15.73896484 13.90492187 15.47265625 14.828125 C14.8951187 17.4819339 15.34741805 19.38967219 16 22 C17.98 22.66 19.96 23.32 22 24 C22 24.99 22 25.98 22 27 C21.21625 27.226875 20.4325 27.45375 19.625 27.6875 C16.78125 28.78125 16.78125 28.78125 15.6875 31.625 C15.460625 32.40875 15.23375 33.1925 15 34 C13.68 33.67 12.36 33.34 11 33 C10.505 30.525 10.505 30.525 10 28 C9.195625 27.855625 8.39125 27.71125 7.5625 27.5625 C5 27 5 27 4 26 C3.67 26.66 3.34 27.32 3 28 C1.125 27.8125 1.125 27.8125 -1 27 C-2.52164099 24.10888212 -3 22.28176588 -3 19 C-6.3 18.01 -9.6 17.02 -13 16 C-13 14.68 -13 13.36 -13 12 C-8.05 10.515 -8.05 10.515 -3 9 C-2.87625 8.071875 -2.7525 7.14375 -2.625 6.1875 C-2 3 -2 3 0 0 Z M1 7 C0.67 8.65 0.34 10.3 0 12 C-1.32 12.33 -2.64 12.66 -4 13 C-4 13.66 -4 14.32 -4 15 C-2.68 15.33 -1.36 15.66 0 16 C0.33 17.65 0.66 19.3 1 21 C2.93798263 18.22739701 2.93798263 18.22739701 4 16 C4.99 15.67 5.98 15.34 7 15 C7 14.34 7 13.68 7 13 C6.01 12.67 5.02 12.34 4 12 C2.8125 9.4375 2.8125 9.4375 2 7 C1.67 7 1.34 7 1 7 Z M6 19 C5.18828772 21.55519921 5.18828772 21.55519921 5 24 C7.47627099 23.36078035 7.47627099 23.36078035 10 22 C11.36078035 19.47627099 11.36078035 19.47627099 12 17 C9.40286494 17 8.15101064 17.54286376 6 19 Z " fill="#FFFFFF" transform="translate(40,0)"/>
<path d="M0 0 C9.9 0 19.8 0 30 0 C30 1.32 30 2.64 30 4 C20.1 4 10.2 4 0 4 C0 2.68 0 1.36 0 0 Z " fill="#FFFFFF" transform="translate(12,46)"/>
<path d="M0 0 C10.23 0 20.46 0 31 0 C31 0.99 31 1.98 31 3 C20.77 3 10.54 3 0 3 C0 2.01 0 1.02 0 0 Z " fill="#FFFFFF" transform="translate(11,39)"/>
<path d="M0 0 C4.95 0 9.9 0 15 0 C15 0.99 15 1.98 15 3 C13.02 3 11.04 3 9 3 C9 7.95 9 12.9 9 18 C8.01 18 7.02 18 6 18 C6 13.05 6 8.1 6 3 C4.02 3 2.04 3 0 3 C0 2.01 0 1.02 0 0 Z " fill="#FFFFFF" transform="translate(12,19)"/>
<path d="M0 0 C5.28 0 10.56 0 16 0 C16 1.32 16 2.64 16 4 C10.72 4 5.44 4 0 4 C0 2.68 0 1.36 0 0 Z " fill="#FFFFFF" transform="translate(26,32)"/>
<path d="M0 0 C0.99 0 1.98 0 3 0 C3 0.66 3 1.32 3 2 C3.99 2.33 4.98 2.66 6 3 C5.67 3.99 5.34 4.98 5 6 C4.34 6 3.68 6 3 6 C3 6.66 3 7.32 3 8 C2.01 8 1.02 8 0 8 C0 7.34 0 6.68 0 6 C-0.99 6 -1.98 6 -3 6 C-3 4.68 -3 3.36 -3 2 C-2.01 2 -1.02 2 0 2 C0 1.34 0 0.68 0 0 Z " fill="#FFFFFF" transform="translate(52,2)"/>
<path d="M0 0 C2.97 0 5.94 0 9 0 C9 0.99 9 1.98 9 3 C6.03 3 3.06 3 0 3 C0 2.01 0 1.02 0 0 Z " fill="#FFFFFF" transform="translate(29,26)"/>
<path d="M0 0 C1.98 0 3.96 0 6 0 C6 0.99 6 1.98 6 3 C4.02 3 2.04 3 0 3 C0 2.01 0 1.02 0 0 Z " fill="#FFFFFF" transform="translate(29,19)"/>
</svg>
