<svg width="53" height="49" viewBox="0 0 53 49" fill="none" xmlns="http://www.w3.org/2000/svg">
<path d="M24.769 25.3178C24.5909 24.8267 24.1243 24.5 23.6017 24.5C23.0792 24.5 22.6125 24.8267 22.4345 25.3178L19.122 34.4271C18.8876 35.0723 19.2201 35.7844 19.8648 36.0192C20.5095 36.2532 21.2217 35.9215 21.4569 35.2764L21.7616 34.4375H25.4418L25.747 35.276C25.9304 35.7807 26.407 36.0942 26.9142 36.0942C27.0554 36.0942 27.1987 36.0697 27.3386 36.0188C27.9833 35.7844 28.3158 35.0718 28.0815 34.4267L24.769 25.3178ZM22.6651 31.9531L23.6017 29.3768L24.5383 31.9531H22.6651Z" fill="white"/>
<path d="M30.6406 25.7422V34.8516C30.6406 35.5377 31.1967 36.0938 31.8828 36.0938C32.5689 36.0938 33.125 35.5377 33.125 34.8516V25.7422C33.125 25.0561 32.5689 24.5 31.8828 24.5C31.1967 24.5 30.6406 25.0561 30.6406 25.7422Z" fill="white"/>
<path d="M48.0312 22.0156C50.3144 22.0156 52.1719 20.1581 52.1719 17.875V4.625C52.1719 2.34186 50.3144 0.484375 48.0312 0.484375H32.2969C30.0137 0.484375 28.1562 2.34186 28.1562 4.625V12.0322C23.3697 11.7659 18.5674 12.6632 14.1982 14.649L12.3221 15.502C12.0488 15.6266 11.8298 15.8457 11.7051 16.119L10.8522 17.9951C10.5586 18.641 10.2986 19.2969 10.0534 19.9569C10.0145 19.9532 9.97725 19.9453 9.9375 19.9453H5.79688C5.26232 19.9453 4.78739 20.2873 4.61845 20.795L4.07355 22.4297H2.07031C1.38421 22.4297 0.828125 22.9858 0.828125 23.6719C0.828125 24.358 1.38421 24.9141 2.07031 24.9141H4.96875C5.5033 24.9141 5.97782 24.572 6.14717 24.0644L6.69208 22.4297H9.24891C8.65266 24.601 8.31313 26.8237 8.21997 29.0547H3.72656C3.04046 29.0547 2.48438 29.6108 2.48438 30.2969C2.48438 30.983 3.04046 31.5391 3.72656 31.5391H8.21997C8.31313 33.77 8.65266 35.9927 9.24891 38.1641H6.69208L6.14717 36.5293C5.97782 36.0217 5.5033 35.6797 4.96875 35.6797H2.07031C1.38421 35.6797 0.828125 36.2358 0.828125 36.9219C0.828125 37.608 1.38421 38.1641 2.07031 38.1641H4.07355L4.61845 39.7988C4.78739 40.3064 5.26232 40.6484 5.79688 40.6484H9.9375C9.97725 40.6484 10.0145 40.6406 10.0534 40.6368C10.2986 41.2969 10.5586 41.9531 10.8522 42.5987L11.7051 44.4748C11.8298 44.7481 12.0488 44.9671 12.3221 45.0917L14.1982 45.9447C18.1074 47.7219 22.3031 48.6104 26.5 48.61C30.6961 48.61 34.8935 47.7215 38.8018 45.9447L40.6779 45.0917C40.9512 44.9671 41.1702 44.7481 41.2949 44.4748L42.1478 42.5987C42.4418 41.9523 42.7031 41.2969 42.9486 40.6368C42.9867 40.6402 43.0236 40.6484 43.0625 40.6484H47.2031C47.7377 40.6484 48.2122 40.3064 48.3815 39.7988L48.9265 38.1641H50.9297C51.6158 38.1641 52.1719 37.608 52.1719 36.9219C52.1719 36.2358 51.6158 35.6797 50.9297 35.6797H48.0312C47.4967 35.6797 47.0218 36.0217 46.8528 36.5293L46.3079 38.1641H43.7498C44.3494 35.9915 44.7014 33.7713 44.7945 31.5391H49.2734C49.9595 31.5391 50.5156 30.983 50.5156 30.2969C50.5156 29.6108 49.9595 29.0547 49.2734 29.0547H44.7912C44.6906 26.6891 44.3059 24.3282 43.6331 22.0156H48.0312ZM30.6406 4.625C30.6406 3.71158 31.3835 2.96875 32.2969 2.96875H48.0312C48.9447 2.96875 49.6875 3.71158 49.6875 4.625V17.875C49.6875 18.7884 48.9447 19.5312 48.0312 19.5312H32.2969C31.3835 19.5312 30.6406 18.7884 30.6406 17.875V4.625ZM37.2656 30.2969C37.2656 36.2333 32.4364 41.0625 26.5 41.0625C20.5636 41.0625 15.7344 36.2333 15.7344 30.2969C15.7344 24.3605 20.5636 19.5312 26.5 19.5312C27.2097 19.5312 27.9157 19.6041 28.6055 19.7408C29.2895 21.0881 30.6853 22.0156 32.2969 22.0156H33.3734C35.8483 24.0706 37.2656 27.0726 37.2656 30.2969ZM39.8858 41.571L39.2258 43.0231L37.7737 43.6831C30.6083 46.9405 22.3913 46.9405 15.2259 43.6831L13.7738 43.0231L13.1138 41.571C9.85676 34.406 9.85676 26.1881 13.1138 19.0232L13.7738 17.5711L15.2259 16.9111C19.2721 15.0714 23.7254 14.2524 28.1562 14.5203V17.152C27.608 17.0833 27.0548 17.0469 26.5 17.0469C19.1939 17.0469 13.25 22.9907 13.25 30.2969C13.25 37.603 19.1939 43.5469 26.5 43.5469C33.8061 43.5469 39.75 37.603 39.75 30.2969C39.75 27.2382 38.7165 24.341 36.8482 22.0156H41.0311C43.094 28.4675 42.6994 35.382 39.8858 41.571Z" fill="white"/>
<path d="M34.3672 7.9375H36.0234V11.6641C36.0234 12.3502 36.5795 12.9062 37.2656 12.9062C37.9517 12.9062 38.5078 12.3502 38.5078 11.6641V7.9375H40.1641C40.8502 7.9375 41.4062 7.38141 41.4062 6.69531C41.4062 6.00921 40.8502 5.45312 40.1641 5.45312H34.3672C33.6811 5.45312 33.125 6.00921 33.125 6.69531C33.125 7.38141 33.6811 7.9375 34.3672 7.9375Z" fill="white"/>
<path d="M40.5781 11.6641C40.5781 12.3502 41.1342 12.9062 41.8203 12.9062H45.9609C46.647 12.9062 47.2031 12.3502 47.2031 11.6641C47.2031 10.978 46.647 10.4219 45.9609 10.4219H41.8203C41.1342 10.4219 40.5781 10.978 40.5781 11.6641Z" fill="white"/>
<path d="M34.3672 17.0469H45.9609C46.647 17.0469 47.2031 16.4908 47.2031 15.8047C47.2031 15.1186 46.647 14.5625 45.9609 14.5625H34.3672C33.6811 14.5625 33.125 15.1186 33.125 15.8047C33.125 16.4908 33.6811 17.0469 34.3672 17.0469Z" fill="white"/>
</svg>
