<svg width="50" height="50" viewBox="0 0 50 50" fill="none" xmlns="http://www.w3.org/2000/svg">
<path d="M47.7711 47.05H44.1794L45.083 31.9048C45.1378 31.0052 44.8145 30.1125 44.1961 29.4551C43.5769 28.7966 42.7037 28.4192 41.8016 28.4192H8.19942C7.29736 28.4192 6.42488 28.7966 5.80498 29.4544C5.18653 30.1122 4.86251 31.0052 4.91735 31.9048L5.82095 47.05H2.2292C1.82075 47.05 1.49023 47.3809 1.49023 47.789C1.49023 48.1971 1.82075 48.528 2.2292 48.528H6.59785C6.60047 48.528 6.60268 48.5294 6.60529 48.5294H43.395C43.3976 48.5294 43.3999 48.528 43.4025 48.528H47.7711C48.1796 48.528 48.5101 48.1971 48.5101 47.789C48.5101 47.3809 48.1796 47.05 47.7711 47.05ZM25.0002 42.5459C22.789 42.5459 20.9907 40.7471 20.9907 38.536C20.9907 36.3252 22.789 34.5265 25.0002 34.5265C27.2113 34.5265 29.0097 36.3252 29.0097 38.536C29.0097 40.7471 27.2113 42.5459 25.0002 42.5459Z" fill="white"/>
<path d="M13.3752 19.0007H16.3528C16.5054 19.4063 16.6798 19.8116 16.8743 20.2144C16.8755 20.2162 16.8759 20.2184 16.8772 20.2202C17.7771 22.0816 19.1068 23.8561 20.7494 25.0458H16.608C14.864 25.0458 13.2235 25.7478 12.0189 26.945H37.979C36.7818 25.7478 35.1339 25.0458 33.39 25.0458H29.2549C31.2534 23.5972 32.7904 21.2825 33.6483 19.0007H36.6268C37.7655 19.0007 38.6914 18.0748 38.6914 16.9364V14.8144C38.6914 14.0769 38.2997 13.4333 37.7164 13.068C37.157 6.5361 31.6519 1.4707 25.0017 1.4707C18.3518 1.4707 12.8469 6.53565 12.2871 13.0672C11.7029 13.4323 11.3105 14.0763 11.3105 14.8144V16.9364C11.3105 18.0748 12.2364 19.0007 13.3752 19.0007ZM33.0064 15.3782C32.9238 16.2382 32.7329 17.1252 32.4296 18.0282C31.308 21.4008 28.5146 25.0286 25.0284 25.0458H24.9793C22.6153 25.0342 20.5717 23.365 19.149 21.2406C19.9627 21.466 21.0211 21.6732 22.3388 21.7667C22.6592 22.7954 23.6473 23.5525 24.8278 23.5525C26.2653 23.5525 27.4351 22.4357 27.4351 21.0632C27.4351 19.6906 26.2653 18.5742 24.8278 18.5742C23.6786 18.5742 22.7119 19.2917 22.3653 20.2784C19.9221 20.0916 18.5087 19.4961 18.0564 19.268C17.8711 18.8553 17.7081 18.4394 17.5709 18.0272C17.1566 16.7895 16.9466 15.5804 16.9466 14.4326C16.9466 14.1227 16.9603 13.8394 16.9899 13.5598C17.0488 12.95 17.1736 12.3644 17.346 11.803C18.0878 11.5555 20.1945 11.0562 22.8526 12.2089C23.4826 12.482 24.14 12.5978 24.8018 12.5978C27.5632 12.5978 30.3904 10.5892 31.6178 9.5987C32.3702 10.7409 32.87 12.0888 33.0127 13.5663C33.0416 13.8394 33.0553 14.1227 33.0553 14.4326C33.0553 14.7433 33.037 15.0592 33.0064 15.3782ZM25.0017 2.94864C30.7314 2.94864 35.4988 7.19587 36.1993 12.7497H34.3878C33.6185 7.99311 29.6973 4.48215 25.0039 4.48215C20.9112 4.48215 17.4075 7.14978 16.0631 10.9783C16.0614 10.9828 16.0602 10.9872 16.0586 10.9916C15.8623 11.553 15.7269 12.1444 15.6264 12.7497H13.8041C14.5046 7.19587 19.272 2.94864 25.0017 2.94864Z" fill="white"/>
</svg>
