<?xml version="1.0" encoding="UTF-8"?>
<svg version="1.1" xmlns="http://www.w3.org/2000/svg" width="348" height="275">
<path d="M0 0 C1.09804459 0.40874359 2.19608917 0.81748718 3.32740784 1.23861694 C6.94037087 2.58777166 10.5441827 3.95980074 14.1484375 5.33203125 C16.6996706 6.29169502 19.25278913 7.24629474 21.8059082 8.20092773 C27.09950044 10.18289406 32.38893453 12.17558043 37.67529297 14.17675781 C45.05746854 16.97116402 52.44728576 19.74488702 59.83984375 22.51171875 C66.75657216 25.10099768 73.67283014 27.69143648 80.58496094 30.29296875 C92.05487236 34.60847352 103.53367274 38.8975866 115.03544807 43.12735939 C116.95361833 43.83284181 118.87154984 44.53896949 120.78941345 45.24528503 C126.85605799 47.4790662 132.92470106 49.70717977 138.99682617 51.92602539 C141.15942989 52.72127918 143.32195087 53.516758 145.484375 54.3125 C146.97374825 54.85313583 146.97374825 54.85313583 148.49320984 55.4046936 C149.39569962 55.73802704 150.29818939 56.07136047 151.22802734 56.41479492 C152.01398285 56.70231125 152.79993835 56.98982758 153.60971069 57.28605652 C155.5234375 58.14453125 155.5234375 58.14453125 157.5234375 60.14453125 C157.89453125 62.421875 157.89453125 62.421875 157.9609375 65.08203125 C158.00089844 65.95730469 158.04085938 66.83257812 158.08203125 67.734375 C157.5234375 70.14453125 157.5234375 70.14453125 155.54321289 71.58227539 C151.6830415 73.57930318 147.72813158 75.06518389 143.6484375 76.55078125 C142.3438282 77.03302406 142.3438282 77.03302406 141.01286316 77.52500916 C138.18473479 78.56947314 135.3541441 79.6070775 132.5234375 80.64453125 C128.62294408 82.08129264 124.72358042 83.52110787 120.82421875 84.9609375 C119.85720535 85.31744888 118.89019196 85.67396027 117.89387512 86.04127502 C112.06217915 88.19443638 106.24415013 90.37939526 100.44140625 92.609375 C99.43051437 92.9971965 99.43051437 92.9971965 98.39920044 93.39285278 C95.32388049 94.5738409 92.25120065 95.7611429 89.18164062 96.95703125 C88.11236328 97.36824219 87.04308594 97.77945313 85.94140625 98.203125 C85.03156982 98.55689209 84.1217334 98.91065918 83.18432617 99.27514648 C80.30921144 100.21452473 77.50904623 100.68354431 74.5234375 101.14453125 C72.1379999 101.8876759 69.80680241 102.66842314 67.4609375 103.51953125 C66.74977783 103.77355713 66.03861816 104.02758301 65.3059082 104.28930664 C57.26550914 107.18897274 49.28890505 110.26080083 41.30441284 113.31015015 C32.80256447 116.5556967 24.27739954 119.69927813 15.66381836 122.63671875 C11.37136678 124.11061399 7.13247704 125.67240072 2.9140625 127.34765625 C1.97240234 127.71930908 1.03074219 128.09096191 0.06054688 128.47387695 C-1.73979718 129.1896935 -3.53577239 129.91664349 -5.32617188 130.65698242 C-15.33841041 134.63051562 -21.57389682 133.15752862 -31.2265625 129.08203125 C-33.27870607 128.24564444 -35.33211689 127.41236088 -37.38671875 126.58203125 C-38.41039551 126.16695312 -39.43407227 125.751875 -40.48876953 125.32421875 C-44.83567886 123.60790351 -49.23973018 122.0848759 -53.6640625 120.58203125 C-61.20065777 118.00431238 -68.58093381 115.14126112 -75.95532227 112.13354492 C-82.77781359 109.37220413 -89.68083921 106.90545434 -96.64453125 104.52539062 C-101.7305121 102.78244213 -106.70519472 100.90794891 -111.6015625 98.67578125 C-113.99298718 97.99821092 -115.194649 98.17191238 -117.4765625 99.14453125 C-125.86557113 108.70409922 -129.70828934 123.78630868 -130.4765625 136.14453125 C-130.55261719 137.18996094 -130.62867188 138.23539063 -130.70703125 139.3125 C-131.26040908 146.3961785 -131.26040908 146.3961785 -128.2265625 152.45703125 C-126.8653125 153.78734375 -126.8653125 153.78734375 -125.4765625 155.14453125 C-121.51494273 160.90343539 -120.57610033 166.24830876 -121.4765625 173.14453125 C-122.51152725 177.63468602 -123.81275612 180.46180551 -127.06347656 183.80517578 C-129.23833613 186.40655206 -129.47011924 187.05892704 -129.74047852 190.65087891 C-129.48802368 192.58519775 -129.48802368 192.58519775 -129.23046875 194.55859375 C-129.14536545 195.27423996 -129.06026215 195.98988617 -128.97257996 196.72721863 C-128.68712375 199.0786734 -128.36301133 201.42309826 -128.0390625 203.76953125 C-127.83400606 205.40938834 -127.63189993 207.04961681 -127.43261719 208.69018555 C-127.0142974 212.10853569 -126.58206079 215.52469122 -126.13916016 218.93994141 C-125.16777481 226.48634157 -124.32609322 234.04704329 -123.48898315 241.60931396 C-123.23155541 243.91236274 -122.96548887 246.21427107 -122.69750977 248.51611328 C-122.53516043 249.94041162 -122.37296178 251.36472715 -122.2109375 252.7890625 C-122.06881836 254.01987549 -121.92669922 255.25068848 -121.78027344 256.51879883 C-120.88124037 267.25154806 -120.88124037 267.25154806 -123.4765625 271.14453125 C-126.20700779 271.47361582 -128.70618347 271.61256365 -131.44140625 271.61328125 C-132.23051895 271.62089478 -133.01963165 271.6285083 -133.83265686 271.63635254 C-135.50290765 271.64716569 -137.17322612 271.65000169 -138.84350586 271.64550781 C-141.40137434 271.64453607 -143.95623751 271.68612445 -146.51367188 271.73046875 C-148.1354104 271.7356761 -149.75715937 271.73836394 -151.37890625 271.73828125 C-152.14460434 271.75467651 -152.91030243 271.77107178 -153.69920349 271.78796387 C-155.86303711 271.75976562 -155.86303711 271.75976562 -159.4765625 271.14453125 C-161.88773298 268.26551576 -162.4690288 266.5845506 -162.53361511 262.81227112 C-162.38483414 261.54463425 -162.23605316 260.27699738 -162.08276367 258.97094727 C-162.00517319 258.26784424 -161.9275827 257.56474121 -161.84764099 256.84033203 C-161.58800625 254.52416091 -161.30379635 252.21170348 -161.01953125 249.8984375 C-160.83425346 248.28346537 -160.65062828 246.66830286 -160.46858215 245.05296326 C-159.9856603 240.80373358 -159.48231449 236.55717774 -158.97406006 232.31091309 C-158.26240801 226.33326008 -157.57887105 220.35231509 -156.89167786 214.37181091 C-156.52585322 211.18902995 -156.15260653 208.00725892 -155.77323914 204.82606506 C-155.6016598 203.36654835 -155.43009433 201.90703 -155.25854492 200.44750977 C-155.10737717 199.1790773 -154.95620941 197.91064484 -154.80046082 196.60377502 C-154.02291425 189.15356433 -154.02291425 189.15356433 -157.3515625 182.76953125 C-161.9626559 176.23987416 -163.10625463 170.61113369 -162.08984375 162.67578125 C-160.96528034 158.03427111 -158.7252071 152.98429846 -154.96069336 149.90429688 C-152.85960028 147.41298598 -152.78780307 145.2922387 -152.37890625 142.078125 C-152.21712891 140.86962891 -152.05535156 139.66113281 -151.88867188 138.41601562 C-151.73205078 137.15080078 -151.57542969 135.88558594 -151.4140625 134.58203125 C-149.31150109 118.36106555 -146.60426268 103.96338617 -139.4765625 89.14453125 C-140.76626953 88.974375 -140.76626953 88.974375 -142.08203125 88.80078125 C-145.60071658 88.12052908 -148.49084023 87.03978391 -151.7890625 85.64453125 C-160.04762801 82.21227401 -168.46403204 79.24782541 -176.9074707 76.3046875 C-177.94347412 75.93859375 -178.97947754 75.5725 -180.046875 75.1953125 C-180.97258301 74.87216064 -181.89829102 74.54900879 -182.85205078 74.21606445 C-185.61712225 73.08714364 -188.02514266 71.85274069 -190.4765625 70.14453125 C-190.96484375 67.6640625 -190.96484375 67.6640625 -190.7890625 64.95703125 C-190.72138672 63.60544922 -190.72138672 63.60544922 -190.65234375 62.2265625 C-190.56533203 61.19595703 -190.56533203 61.19595703 -190.4765625 60.14453125 C-185.08796594 57.36234248 -179.7163483 54.95416072 -174.0390625 52.83203125 C-173.17998291 52.5071875 -172.32090332 52.18234375 -171.43579102 51.84765625 C-164.86861347 49.37913102 -158.27903969 46.9728291 -151.6875 44.5703125 C-150.37038277 44.08989754 -150.37038277 44.08989754 -149.0266571 43.59977722 C-144.60300636 41.98681503 -140.17799449 40.37779792 -135.75024414 38.77612305 C-127.25624686 35.69333737 -118.82171387 32.51326525 -110.44921875 29.11328125 C-103.1045977 26.1346453 -95.70552108 23.41045964 -88.21252441 20.8298645 C-78.76484489 17.57287719 -69.39811627 14.10218012 -60.02856445 10.62792969 C-57.01783075 9.51165929 -54.00606449 8.39821087 -50.99414062 7.28515625 C-50.01343597 6.9220636 -49.03273132 6.55897095 -48.02230835 6.18487549 C-46.09844735 5.47293078 -44.17400013 4.76256793 -42.24893188 4.05389404 C-38.31397211 2.59955675 -34.39422133 1.13543898 -30.52685547 -0.49121094 C-29.42615723 -0.94915039 -28.32545898 -1.40708984 -27.19140625 -1.87890625 C-26.30445068 -2.26739746 -25.41749512 -2.65588867 -24.50366211 -3.05615234 C-15.6364486 -5.39757157 -8.3365473 -3.21759158 0 0 Z " fill="#070707" transform="translate(190.4765625,3.85546875)"/>
<path d="M0 0 C4.21785874 0.10712022 6.96472831 1.07181662 10.609375 3.109375 C23.44427082 10.27921336 37.6833645 15.37467626 51.8125 19.3203125 C54.2485297 20.1592513 56.30581552 21.0553164 58.578125 22.2265625 C63.45761398 24.73233996 68.49290487 26.70046433 73.625 28.625 C74.53765625 28.98851562 75.4503125 29.35203125 76.390625 29.7265625 C89.26990424 34.53820334 99.00622547 32.24798987 111.5 27.3125 C112.83575315 26.80194764 114.17218777 26.29317487 115.50927734 25.78613281 C119.30744343 24.33968321 123.09189573 22.86039386 126.875 21.375 C128.62483861 20.69359583 130.37481387 20.01254232 132.125 19.33203125 C134.28238312 18.49154393 136.43885524 17.64915111 138.59228516 16.79858398 C144.79457288 14.36108345 151.07763713 12.18003111 157.37915039 10.0144043 C164.0719863 7.69909093 170.66642023 5.17069179 177.22851562 2.5078125 C180.25900914 1.2956151 182.57834606 0.375 185.875 0.375 C186.865 5.325 186.865 5.325 187.875 10.375 C187.215 10.375 186.555 10.375 185.875 10.375 C186.02839844 11.67566406 186.18179688 12.97632813 186.33984375 14.31640625 C187.26103736 22.64939039 187.57338145 31.0003301 187.875 39.375 C187.92108398 40.46876953 187.96716797 41.56253906 188.01464844 42.68945312 C188.14868618 46.14703985 188.23568142 49.60320942 188.3125 53.0625 C188.35898682 54.14845459 188.40547363 55.23440918 188.45336914 56.35327148 C188.55758788 64.05771618 186.84382031 68.51574459 181.875 74.375 C181.27413574 75.08696533 180.67327148 75.79893066 180.05419922 76.5324707 C167.09921278 91.22973142 145.40330882 96.95312461 126.875 100.375 C125.72644531 100.59027344 124.57789063 100.80554688 123.39453125 101.02734375 C112.63929073 102.78775946 101.75031832 103.05878493 90.875 103.375 C90.15602539 103.39836426 89.43705078 103.42172852 88.69628906 103.44580078 C58.75188768 104.32913835 24.26916629 97.38206307 1.75 76.39453125 C-3.49887249 70.74105817 -6.26201745 65.36743689 -6.22265625 57.61328125 C-6.21943359 56.49501953 -6.21621094 55.37675781 -6.21289062 54.22460938 C-6.20451172 53.05736328 -6.19613281 51.89011719 -6.1875 50.6875 C-6.18073242 48.91922852 -6.18073242 48.91922852 -6.17382812 47.11523438 C-6.16203273 44.20177211 -6.1455727 41.28841137 -6.125 38.375 C-5.795 38.375 -5.465 38.375 -5.125 38.375 C-5.10034119 34.40569011 -5.08215977 30.43640966 -5.07006836 26.46704102 C-5.06502943 25.11579614 -5.05819823 23.76455674 -5.04956055 22.41333008 C-5.03747581 20.47479566 -5.03230172 18.536222 -5.02734375 16.59765625 C-5.02210693 15.42984619 -5.01687012 14.26203613 -5.01147461 13.05883789 C-4.81838505 10.45608449 -4.81838505 10.45608449 -6.125 9.375 C-6.3125 5.9375 -6.3125 5.9375 -6.125 2.375 C-3.77479502 0.02479502 -3.20590378 0.05585198 0 0 Z " fill="#050505" transform="translate(83.125,126.625)"/>
<path d="M0 0 C4.5275641 0.61833197 8.5390401 1.76329512 12.8125 3.375 C14.52373047 4.00535156 14.52373047 4.00535156 16.26953125 4.6484375 C17.17058594 5.09445313 18.07164063 5.54046875 19 6 C20.305239 9.91571701 19.32239848 11.03892997 17.5625 14.6875 C17.08941406 15.68136719 16.61632812 16.67523438 16.12890625 17.69921875 C15.75636719 18.45847656 15.38382813 19.21773437 15 20 C14.34 19.34 13.68 18.68 13 18 C14.65 14.37 16.3 10.74 18 7 C17.14148438 6.88785156 16.28296875 6.77570313 15.3984375 6.66015625 C11.8636744 5.97351836 8.92396876 4.86705313 5.625 3.4375 C4.56539062 2.98246094 3.50578125 2.52742188 2.4140625 2.05859375 C1.61742187 1.70925781 0.82078125 1.35992187 0 1 C0 0.67 0 0.34 0 0 Z " fill="#E6E6E6" transform="translate(33,86)"/>
<path d="M0 0 C0.33 0 0.66 0 1 0 C1 6.6 1 13.2 1 20 C0.67 20 0.34 20 0 20 C-0.09087891 18.93458984 -0.09087891 18.93458984 -0.18359375 17.84765625 C-0.26738281 16.92855469 -0.35117188 16.00945312 -0.4375 15.0625 C-0.51871094 14.14597656 -0.59992188 13.22945312 -0.68359375 12.28515625 C-0.76044976 10.03840268 -0.76044976 10.03840268 -2 9 C-2.1875 5.5625 -2.1875 5.5625 -2 2 C-1.34 1.34 -0.68 0.68 0 0 Z " fill="#E2E2E2" transform="translate(79,127)"/>
<path d="M0 0 C0.66 0 1.32 0 2 0 C1.21681311 3.91593446 -0.39179858 7.36406635 -2 11 C-2.66 10.34 -3.32 9.68 -4 9 C-2.68 6.03 -1.36 3.06 0 0 Z " fill="#EEEEEE" transform="translate(50,95)"/>
</svg>
