<svg width="38" height="38" viewBox="0 0 38 38" fill="none" xmlns="http://www.w3.org/2000/svg">
<path d="M37.9917 28.3012L38 28.2969H37.9839L28.4999 23.4538L19.0002 18.6021L9.50009 23.4538L0.0161387 28.2969H0L0.00825703 28.3012L0 28.3055H0.0161387L9.50009 33.1487L19.0002 38.0004L28.4999 33.1487L37.9839 28.3055H38L37.9917 28.3012Z" fill="#DCD8FF"/>
<path d="M37.9917 9.69915L38 9.69525H37.9839L28.4999 4.8517L19.0002 0L9.50009 4.8517L0.0161388 9.69525H0L0.00825703 9.69915L0 9.70341H0.0161388L9.50009 14.547L19.0002 19.3987L28.4999 14.547L37.9839 9.70341H38L37.9917 9.69915Z" fill="#240CF2"/>
<path d="M0.0161133 9.30469V28.6948L19.0002 18.9999L0.0161133 9.30469Z" fill="#C0B7FF"/>
<path d="M37.9837 9.30469V28.6948L19 18.9999L37.9837 9.30469Z" fill="#C0B7FF"/>
</svg>
