<svg width="256" height="256" viewBox="0 0 256 256" fill="none" xmlns="http://www.w3.org/2000/svg">
<path d="M124.248 3.15903C125.535 -0.326451 130.465 -0.326458 131.752 3.15902L147.005 44.455C147.961 47.0443 151.191 47.9097 153.314 46.1454L187.171 18.0084C190.029 15.6336 194.298 18.0985 193.67 21.7607L186.231 65.1504C185.765 67.871 188.129 70.2352 190.85 69.7687L234.239 62.33C237.902 61.7021 240.366 65.9714 237.992 68.829L209.855 102.686C208.09 104.809 208.956 108.039 211.545 108.995L252.841 124.248C256.326 125.535 256.326 130.465 252.841 131.752L211.545 147.005C208.956 147.961 208.09 151.191 209.855 153.314L237.992 187.171C240.366 190.029 237.902 194.298 234.239 193.67L190.85 186.231C188.129 185.765 185.765 188.129 186.231 190.85L193.67 234.239C194.298 237.902 190.029 240.366 187.171 237.992L153.314 209.855C151.191 208.09 147.961 208.956 147.005 211.545L131.752 252.841C130.465 256.326 125.535 256.326 124.248 252.841L108.995 211.545C108.039 208.956 104.809 208.09 102.686 209.855L68.8291 237.992C65.9714 240.366 61.7021 237.902 62.33 234.239L69.7687 190.85C70.2352 188.129 67.871 185.765 65.1504 186.231L21.7607 193.67C18.0985 194.298 15.6336 190.029 18.0084 187.171L46.1454 153.314C47.9097 151.191 47.0443 147.961 44.455 147.005L3.15903 131.752C-0.326451 130.465 -0.326458 125.535 3.15902 124.248L44.455 108.995C47.0443 108.039 47.9097 104.809 46.1454 102.686L18.0084 68.8291C15.6336 65.9714 18.0985 61.7021 21.7607 62.33L65.1504 69.7687C67.871 70.2352 70.2352 67.871 69.7687 65.1504L62.33 21.7607C61.7021 18.0985 65.9714 15.6336 68.829 18.0084L102.686 46.1454C104.809 47.9097 108.039 47.0443 108.995 44.455L124.248 3.15903Z" stroke="#66966A" stroke-width="2" stroke-linecap="round" stroke-linejoin="round" stroke-dasharray="8 8"/>
</svg>
