<svg width="20" height="20" viewBox="0 0 20 20" fill="none" xmlns="http://www.w3.org/2000/svg">
<g clip-path="url(#clip0_651_39)">
<path d="M2.5 15V5H6.25C6.91304 5 7.54893 5.26339 8.01777 5.73223C8.48661 6.20107 8.75 6.83696 8.75 7.5C8.75 8.16304 8.48661 8.79893 8.01777 9.26777C7.54893 9.73661 6.91304 10 6.25 10C6.91304 10 7.54893 10.2634 8.01777 10.7322C8.48661 11.2011 8.75 11.837 8.75 12.5C8.75 13.163 8.48661 13.7989 8.01777 14.2678C7.54893 14.7366 6.91304 15 6.25 15H2.5Z" stroke="#0E0086" stroke-width="1.5" stroke-linecap="round" stroke-linejoin="round"/>
<path d="M2.5 10H6.25" stroke="#0E0086" stroke-width="1.5" stroke-linecap="round" stroke-linejoin="round"/>
<path d="M11.6666 10.8332H17.5C17.5 10.0596 17.1927 9.31776 16.6457 8.77078C16.0987 8.22379 15.3568 7.9165 14.5833 7.9165C13.8097 7.9165 13.0679 8.22379 12.5209 8.77078C11.9739 9.31776 11.6666 10.0596 11.6666 10.8332ZM11.6666 10.8332V12.4998C11.7526 13.1237 12.0382 13.703 12.4807 14.1511C12.9232 14.5993 13.4989 14.8921 14.1216 14.9859C14.7444 15.0797 15.3808 14.9694 15.9357 14.6715C16.4905 14.3736 16.9341 13.9041 17.2 13.3332" stroke="#0E0086" stroke-width="1.5" stroke-linecap="round" stroke-linejoin="round"/>
<path d="M13.3334 5H15.8334" stroke="#0E0086" stroke-width="1.5" stroke-linecap="round" stroke-linejoin="round"/>
</g>
<defs>
<clipPath id="clip0_651_39">
<rect width="20" height="20" fill="white"/>
</clipPath>
</defs>
</svg>
