<svg width="50" height="50" viewBox="0 0 50 50" fill="none" xmlns="http://www.w3.org/2000/svg">
<path d="M5.8456 10.8334L14.5941 16.6658L23.3155 4.45583C23.9842 3.51956 25.2855 3.30271 26.2217 3.97146C26.4088 4.10508 26.5723 4.26875 26.7061 4.45583L35.4275 16.6658L44.1759 10.8334C45.1334 10.1952 46.4267 10.4539 47.065 11.4112C47.3394 11.823 47.4584 12.3189 47.4007 12.8103L43.9773 41.9091C43.8538 42.9583 42.9646 43.7491 41.9082 43.7491H8.11337C7.05696 43.7491 6.16775 42.9583 6.04431 41.9091L2.62092 12.8103C2.48648 11.6676 3.30385 10.6322 4.44656 10.4978C4.93798 10.44 5.43392 10.559 5.8456 10.8334ZM25.0109 31.2491C27.3119 31.2491 29.1775 29.3837 29.1775 27.0825C29.1775 24.7812 27.3119 22.9158 25.0109 22.9158C22.7096 22.9158 20.8442 24.7812 20.8442 27.0825C20.8442 29.3837 22.7096 31.2491 25.0109 31.2491Z" fill="white"/>
</svg>
