<svg width="24" height="24" viewBox="0 0 24 24" fill="none" xmlns="http://www.w3.org/2000/svg">
<path d="M10.9042 2.1001L20.8037 3.51431L22.2179 13.4138L13.0255 22.6061C12.635 22.9967 12.0019 22.9967 11.6113 22.6061L1.71184 12.7067C1.32131 12.3161 1.32131 11.683 1.71184 11.2924L10.9042 2.1001ZM11.6113 4.22142L3.83316 11.9995L12.3184 20.4848L20.0966 12.7067L19.036 5.28208L11.6113 4.22142ZM13.7327 10.5853C12.9516 9.80433 12.9516 8.538 13.7327 7.75695C14.5137 6.97591 15.78 6.97591 16.5611 7.75695C17.3421 8.538 17.3421 9.80433 16.5611 10.5853C15.78 11.3664 14.5137 11.3664 13.7327 10.5853Z" fill="black"/>
</svg>
