<svg width="48" height="48" viewBox="0 0 48 48" fill="none" xmlns="http://www.w3.org/2000/svg">
<path d="M13.5198 44H34.4798C39.9998 44 42.1998 40.62 42.4598 36.5L43.4998 19.98C43.7798 15.66 40.3398 12 35.9998 12C34.7798 12 33.6598 11.3 33.0998 10.22L31.6598 7.32C30.7398 5.5 28.3398 4 26.2998 4H21.7198C19.6598 4 17.2598 5.5 16.3398 7.32L14.8998 10.22C14.3398 11.3 13.2198 12 11.9998 12C7.65985 12 4.21985 15.66 4.49985 19.98L5.53985 36.5C5.77985 40.62 7.99985 44 13.5198 44Z" stroke="white" stroke-width="2" stroke-linecap="round" stroke-linejoin="round"/>
<path opacity="0.4" d="M21 16H27" stroke="white" stroke-width="2" stroke-linecap="round" stroke-linejoin="round"/>
<path opacity="0.4" d="M24 36C27.58 36 30.5 33.08 30.5 29.5C30.5 25.92 27.58 23 24 23C20.42 23 17.5 25.92 17.5 29.5C17.5 33.08 20.42 36 24 36Z" stroke="white" stroke-width="2" stroke-linecap="round" stroke-linejoin="round"/>
</svg>
