<svg width="48" height="48" viewBox="0 0 48 48" fill="none" xmlns="http://www.w3.org/2000/svg">
<g clip-path="url(#clip0_145_520)">
<path d="M20.8601 35.24C20.8601 37.44 20.0201 39.54 18.4401 41.14C17.2201 42.36 15.5601 43.2 13.5801 43.46L8.66006 44C5.98006 44.3 3.68006 42.02 4.00006 39.3L4.54006 34.38C5.02006 30 8.68006 27.2 12.5601 27.12C12.9601 27.1 13.3801 27.12 13.7601 27.14C15.4601 27.36 17.1201 28.14 18.4801 29.52C19.8201 30.86 20.5801 32.42 20.8001 34.1C20.8201 34.48 20.8601 34.86 20.8601 35.24Z" stroke="white" stroke-width="2" stroke-linecap="round" stroke-linejoin="round"/>
<g opacity="0.4">
<path d="M43.6191 7.87976C40.5391 15.5598 32.8191 25.9998 26.3591 31.1798L22.4191 34.3398C21.9191 34.6998 21.4191 35.0198 20.8591 35.2398C20.8591 34.8798 20.8391 34.4798 20.7791 34.0998C20.5591 32.4198 19.7991 30.8598 18.4591 29.5198C17.0991 28.1598 15.4391 27.3598 13.7391 27.1398C13.3391 27.1198 12.9391 27.0798 12.5391 27.1198C12.7591 26.4998 13.0991 25.9198 13.5191 25.4398L16.6391 21.4998C21.7991 15.0398 32.2791 7.27975 39.9391 4.21975C41.1191 3.77975 42.2591 4.09975 42.9791 4.83975C43.7391 5.57975 44.0991 6.71976 43.6191 7.87976Z" stroke="white" stroke-width="2" stroke-linecap="round" stroke-linejoin="round"/>
<path d="M28.4795 28.9405C28.4795 23.7205 24.2395 19.4805 19.0195 19.4805" stroke="white" stroke-width="2" stroke-linecap="round" stroke-linejoin="round"/>
</g>
<path d="M40.2399 25.46L41.7199 26.92C44.6999 29.9 44.6999 32.84 41.7199 35.82L35.7999 41.74C32.8599 44.68 29.8799 44.68 26.9399 41.74" stroke="white" stroke-width="2" stroke-linecap="round"/>
<path d="M6.22014 21.02C3.28014 18.04 3.28014 15.1 6.22014 12.12L12.1401 6.2C15.0801 3.25999 18.0601 3.25999 21.0001 6.2L22.4801 7.68" stroke="white" stroke-width="2" stroke-linecap="round"/>
<path opacity="0.4" d="M22.5001 7.70001L15.1001 15.1" stroke="white" stroke-width="2" stroke-linecap="round"/>
<path opacity="0.4" d="M40.2398 25.46L34.3198 31.36" stroke="white" stroke-width="2" stroke-linecap="round"/>
</g>
<defs>
<clipPath id="clip0_145_520">
<rect width="48" height="48" fill="white"/>
</clipPath>
</defs>
</svg>
