<svg width="48" height="48" viewBox="0 0 48 48" fill="none" xmlns="http://www.w3.org/2000/svg">
<path d="M21.4997 45.0002H26.5397C28.4597 45.0002 29.6998 43.6403 29.3398 41.9803L28.5197 38.3605H19.5197L18.6997 41.9803C18.3397 43.5403 19.6997 45.0002 21.4997 45.0002Z" stroke="white" stroke-width="2" stroke-linecap="round" stroke-linejoin="round"/>
<path d="M28.5201 38.3404L31.9801 35.2603C33.9201 33.5403 34.0002 32.3401 32.4601 30.4002L26.3601 22.6603C25.0801 21.0403 22.9801 21.0403 21.7002 22.6603L15.6001 30.4002C14.0601 32.3401 14.0601 33.6003 16.0801 35.2603L19.5402 38.3404" stroke="white" stroke-width="2" stroke-linecap="round" stroke-linejoin="round"/>
<path opacity="0.4" d="M24.0195 22.2403V27.3004" stroke="white" stroke-width="2" stroke-linecap="round" stroke-linejoin="round"/>
<path d="M22.3002 10.3798L20.7402 8.81978C19.8001 7.87977 19.8001 6.35988 20.7402 5.41987L22.3002 3.85981C23.2402 2.91982 24.7602 2.91982 25.7002 3.85981L27.2602 5.41987C28.2001 6.35988 28.2001 7.87977 27.2602 8.81978L25.7002 10.3798C24.7602 11.3198 23.2402 11.3198 22.3002 10.3798Z" stroke="white" stroke-width="2" stroke-linecap="round" stroke-linejoin="round"/>
<path d="M38.8999 19.6203H41.0999C42.4199 19.6203 43.4999 20.7003 43.4999 22.0203V24.2203C43.4999 25.5403 42.4199 26.6204 41.0999 26.6204H38.8999C37.5799 26.6204 36.5 25.5403 36.5 24.2203V22.0203C36.5 20.7003 37.5799 19.6203 38.8999 19.6203Z" stroke="white" stroke-width="2" stroke-linecap="round" stroke-linejoin="round"/>
<path d="M9.1 19.6203H6.9C5.58 19.6203 4.5 20.7003 4.5 22.0203V24.2203C4.5 25.5403 5.58 26.6204 6.9 26.6204H9.1C10.42 26.6204 11.5 25.5403 11.5 24.2203V22.0203C11.5 20.7003 10.42 19.6203 9.1 19.6203Z" stroke="white" stroke-width="2" stroke-linecap="round" stroke-linejoin="round"/>
<path opacity="0.4" d="M37.0799 20.2L26.48 9.60013" stroke="white" stroke-width="2" stroke-linecap="round" stroke-linejoin="round"/>
<path opacity="0.4" d="M10.9199 20.2L21.5199 9.60013" stroke="white" stroke-width="2" stroke-linecap="round" stroke-linejoin="round"/>
</svg>
