<svg width="48" height="48" viewBox="0 0 48 48" fill="none" xmlns="http://www.w3.org/2000/svg">
<path d="M22.0001 4.00023H18C8.00001 4.00023 4 8.00022 4 18.0003V30.0003C4 40.0002 8.00001 44.0002 18 44.0002H30C40.0001 44.0002 44 40.0002 44 30.0003V26.0002" stroke="white" stroke-width="2" stroke-linecap="round" stroke-linejoin="round"/>
<path d="M32.0802 6.04016L16.3203 21.8002C15.7203 22.4002 15.1203 23.5801 15.0003 24.4402L14.1402 30.4601C13.8203 32.6401 15.3603 34.1602 17.5402 33.8602L23.5602 33.0001C24.4002 32.8801 25.5802 32.2801 26.2002 31.6801L41.9602 15.9202C44.6802 13.2002 45.9603 10.0402 41.9602 6.04016C37.9602 2.04015 34.8003 3.32016 32.0802 6.04016Z" stroke="white" stroke-width="2" stroke-miterlimit="10" stroke-linecap="round" stroke-linejoin="round"/>
<path opacity="0.4" d="M29.8203 8.30031C31.1602 13.0803 34.9003 16.8203 39.7003 18.1803" stroke="white" stroke-width="2" stroke-miterlimit="10" stroke-linecap="round" stroke-linejoin="round"/>
</svg>
