<svg width="64" height="64" viewBox="0 0 64 64" fill="none" xmlns="http://www.w3.org/2000/svg">
<g clip-path="url(#clip0_142_867)">
<path d="M5.33301 32C6.7475 32 8.10405 31.4381 9.10424 30.4379C10.1044 29.4377 10.6663 28.0812 10.6663 26.6667V16C10.6663 14.5855 11.2282 13.229 12.2284 12.2288C13.2286 11.2286 14.5852 10.6667 15.9997 10.6667H47.9997C49.4142 10.6667 50.7707 11.2286 51.7709 12.2288C52.7711 13.229 53.333 14.5855 53.333 16V26.6667C53.333 28.0812 53.8949 29.4377 54.8951 30.4379C55.8953 31.4381 57.2519 32 58.6663 32" stroke="white" stroke-width="2" stroke-linecap="round" stroke-linejoin="round"/>
<path d="M5.33301 32C6.7475 32 8.10405 32.5619 9.10424 33.5621C10.1044 34.5623 10.6663 35.9188 10.6663 37.3333V48C10.6663 49.4145 11.2282 50.771 12.2284 51.7712C13.2286 52.7714 14.5852 53.3333 15.9997 53.3333H47.9997C49.4142 53.3333 50.7707 52.7714 51.7709 51.7712C52.7711 50.771 53.333 49.4145 53.333 48V37.3333C53.333 35.9188 53.8949 34.5623 54.8951 33.5621C55.8953 32.5619 57.2519 32 58.6663 32" stroke="white" stroke-width="2" stroke-linecap="round" stroke-linejoin="round"/>
<path d="M24 42.6666V21.3333H33.3333C34.7478 21.3333 36.1044 21.8952 37.1046 22.8954C38.1048 23.8956 38.6667 25.2522 38.6667 26.6666C38.6667 28.0811 38.1048 29.4377 37.1046 30.4379C36.1044 31.4381 34.7478 32 33.3333 32H24H34.6667C36.0812 32 37.4377 32.5619 38.4379 33.5621C39.4381 34.5623 40 35.9188 40 37.3333C40 38.7478 39.4381 40.1044 38.4379 41.1045C37.4377 42.1047 36.0812 42.6666 34.6667 42.6666H24Z" stroke="white" stroke-width="2" stroke-linecap="round" stroke-linejoin="round"/>
</g>
<defs>
<clipPath id="clip0_142_867">
<rect width="64" height="64" fill="white"/>
</clipPath>
</defs>
</svg>
