<svg width="180" height="180" viewBox="0 0 180 180" fill="none" xmlns="http://www.w3.org/2000/svg">
<path d="M90.2777 8.16586L93.7254 0L95.4343 0.0817329L98.0646 8.54481L96.4523 8.46307L95.8801 6.50891L92.6405 6.35288L91.8678 8.24017L90.2777 8.16586ZM93.1086 5.18633L95.5161 5.30521L94.4758 1.79069L93.1086 5.18633Z" fill="white"/>
<path d="M103.704 9.37705L102.181 0.646484L103.786 0.936265L104.908 8.00988L108.43 1.76845L110.013 2.0508L105.547 9.70398L103.704 9.37705Z" fill="white"/>
<path d="M111.105 10.8853L116.521 3.87109L118.156 4.39121L118.542 13.2407L117.004 12.7503L116.952 10.7144L113.861 9.73357L112.635 11.3682L111.105 10.8853ZM114.604 8.72306L116.908 9.45122L116.796 5.7881L114.604 8.72306Z" fill="white"/>
<path d="M122.547 14.9494L125.928 7.34082L127.318 7.95753L123.937 15.5661L122.547 14.9494Z" fill="white"/>
<path d="M128.373 17.714L132.497 10.4844L133.819 11.2348L130.282 17.4317L133.485 19.2595L132.898 20.2923L128.373 17.714Z" fill="white"/>
<path d="M136.331 22.4703L143.783 17.6777L145.143 18.7105L142.542 27.181L141.257 26.2077L141.888 24.2684L139.303 22.3068L137.601 23.4288L136.331 22.4703ZM140.35 21.6158L142.275 23.0721L143.397 19.5799L140.35 21.6158Z" fill="white"/>
<path d="M145.76 30.0719L151.637 24.1797L154 26.5425C154.609 27.1518 154.936 27.7611 154.973 28.3629C155.01 28.9648 154.81 29.4923 154.371 29.9381C154 30.3097 153.606 30.5028 153.19 30.5251C152.766 30.5474 152.38 30.4583 152.016 30.2502C152.283 30.6514 152.395 31.0973 152.35 31.5802C152.306 32.0632 152.105 32.4867 151.748 32.8359C151.28 33.3041 150.73 33.5195 150.091 33.4824C149.452 33.4527 148.821 33.1257 148.204 32.509L145.76 30.0719ZM147.706 30.2725L148.91 31.4762C149.229 31.7957 149.549 31.9666 149.876 31.9963C150.203 32.026 150.5 31.8997 150.768 31.6322C151.042 31.3573 151.161 31.0527 151.139 30.7035C151.109 30.3617 150.938 30.0347 150.626 29.7227L149.438 28.5413L147.706 30.2725ZM150.247 27.7314L151.377 28.8533C151.681 29.158 151.986 29.3214 152.283 29.3437C152.588 29.366 152.863 29.2471 153.123 28.9871C153.368 28.7419 153.487 28.467 153.465 28.1623C153.45 27.8577 153.279 27.5456 152.959 27.2261L151.852 26.119L150.247 27.7314Z" fill="white"/>
<path d="M153.123 37.8957L159.691 32.7837L160.627 33.9874L154.995 38.3713L157.262 41.2765L156.325 42.0047L153.123 37.8957Z" fill="white"/>
<path d="M158.926 45.8242L166.066 41.5518L168.853 46.2105L167.805 46.8421L165.799 43.4836L163.837 44.6576L165.665 47.7114L164.647 48.3207L162.819 45.2743L160.761 46.5077L162.767 49.8662L161.712 50.4978L158.926 45.8242Z" fill="white"/>
<path d="M166.327 60.359L174.173 57.5801L175.971 62.6475L174.819 63.0562L173.534 59.4228L171.335 60.203L172.375 63.1379L171.245 63.5392L170.205 60.6042L166.847 61.793L166.327 60.359Z" fill="white"/>
<path d="M170.012 73.4886C169.841 72.6712 169.878 71.9208 170.109 71.2446C170.339 70.561 170.74 69.9815 171.297 69.5059C171.862 69.0304 172.553 68.7035 173.385 68.54C174.217 68.3765 174.983 68.3914 175.689 68.6069C176.395 68.8224 176.989 69.1939 177.464 69.7363C177.94 70.2787 178.274 70.9474 178.438 71.7647C178.601 72.5746 178.572 73.3177 178.341 74.0087C178.111 74.6923 177.71 75.2718 177.152 75.7474C176.588 76.2155 175.889 76.5424 175.064 76.7133C174.232 76.8842 173.467 76.8619 172.761 76.6539C172.055 76.4384 171.468 76.0669 170.985 75.5245C170.502 74.9746 170.175 74.2985 170.012 73.4886ZM171.349 73.2136C171.505 73.9864 171.892 74.5585 172.501 74.9152C173.11 75.2718 173.861 75.361 174.752 75.1752C175.644 74.9895 176.298 74.618 176.714 74.0458C177.13 73.4811 177.264 72.805 177.1 72.0322C176.944 71.2595 176.558 70.6874 175.949 70.3307C175.339 69.9666 174.589 69.8849 173.697 70.0632C172.806 70.249 172.152 70.6205 171.736 71.1926C171.32 71.7647 171.193 72.4409 171.349 73.2136Z" fill="white"/>
<path d="M171.498 82.094L179.805 81.5962L179.991 84.6426C180.028 85.3039 179.954 85.8612 179.753 86.307C179.552 86.7528 179.27 87.0946 178.899 87.3324C178.527 87.5701 178.111 87.7039 177.643 87.7336C177.138 87.7633 176.662 87.6593 176.231 87.4215C175.793 87.1838 175.466 86.7899 175.243 86.2401L171.869 88.172L171.765 86.4259L174.946 84.6872L174.871 83.4315L171.595 83.6321L171.498 82.094ZM175.978 83.3497L176.068 84.7838C176.097 85.289 176.246 85.6531 176.506 85.876C176.766 86.0989 177.1 86.1955 177.502 86.1732C177.895 86.1509 178.208 86.0172 178.43 85.7646C178.653 85.5194 178.75 85.133 178.72 84.6129L178.631 83.1863L175.978 83.3497Z" fill="white"/>
<path d="M171.223 100.566L179.798 99.8159L179.523 101.421L172.739 101.77L178.965 104.631L178.683 106.28L171.869 106.838L178.141 109.438L177.858 111.058L170.042 107.417L170.354 105.634L176.714 105.054L170.926 102.327L171.223 100.566Z" fill="white"/>
<path d="M167.092 117.04C167.367 116.252 167.783 115.628 168.333 115.16C168.882 114.692 169.522 114.402 170.25 114.283C170.978 114.164 171.736 114.246 172.538 114.529C173.341 114.811 173.987 115.227 174.477 115.769C174.968 116.319 175.287 116.943 175.421 117.649C175.562 118.355 175.488 119.106 175.213 119.886C174.938 120.666 174.529 121.29 173.98 121.758C173.43 122.226 172.791 122.523 172.063 122.635C171.334 122.746 170.577 122.665 169.774 122.39C168.972 122.115 168.325 121.699 167.835 121.156C167.337 120.614 167.025 119.982 166.891 119.276C166.75 118.563 166.817 117.82 167.092 117.04ZM168.377 117.493C168.117 118.244 168.154 118.927 168.489 119.544C168.823 120.161 169.425 120.621 170.287 120.926C171.149 121.231 171.899 121.245 172.553 120.971C173.207 120.696 173.66 120.19 173.92 119.44C174.18 118.689 174.143 118.006 173.809 117.382C173.474 116.758 172.873 116.297 172.018 115.992C171.164 115.688 170.406 115.68 169.752 115.955C169.098 116.23 168.645 116.743 168.377 117.493Z" fill="white"/>
<path d="M163.941 125.169L171.32 129.018L169.908 131.73C169.603 132.317 169.247 132.756 168.845 133.031C168.444 133.306 168.028 133.454 167.582 133.469C167.144 133.484 166.713 133.38 166.304 133.164C165.851 132.927 165.502 132.6 165.257 132.169C165.004 131.738 164.93 131.233 165.019 130.646L161.133 130.564L161.943 129.011L165.569 129.159L166.148 128.045L163.236 126.529L163.941 125.169ZM167.136 128.558L166.468 129.836C166.23 130.289 166.17 130.675 166.274 130.995C166.386 131.322 166.616 131.574 166.973 131.76C167.322 131.946 167.657 131.983 167.976 131.886C168.296 131.79 168.578 131.507 168.816 131.047L169.477 129.784L167.136 128.558Z" fill="white"/>
<path d="M158.74 134.465L165.554 139.25L164.677 140.498L161.92 138.566L162.901 143.017L161.824 144.555L160.88 140.149L154.966 139.844L156.036 138.314L160.553 138.581L160.301 137.43L157.856 135.713L158.74 134.465Z" fill="white"/>
<path d="M145.381 154L146.183 154.988L142.319 158.131L141.517 157.143L145.381 154Z" fill="white"/>
<path d="M121.812 165.191C122.533 164.886 123.238 164.789 123.915 164.886C124.591 164.99 125.207 165.272 125.75 165.733C126.3 166.194 126.738 166.818 127.065 167.598C127.399 168.386 127.533 169.151 127.474 169.879C127.414 170.615 127.169 171.269 126.738 171.848C126.307 172.428 125.698 172.888 124.91 173.215C124.011 173.594 123.179 173.691 122.406 173.505C121.633 173.319 121.002 172.888 120.504 172.205L122.072 171.544C122.339 171.856 122.666 172.041 123.06 172.116C123.454 172.19 123.885 172.123 124.368 171.923C125.133 171.603 125.624 171.105 125.839 170.444C126.054 169.783 125.98 169.025 125.624 168.178C125.267 167.331 124.784 166.759 124.175 166.469C123.565 166.179 122.911 166.179 122.198 166.476C121.507 166.766 121.061 167.175 120.861 167.702C120.668 168.23 120.66 168.809 120.846 169.456L122.785 168.638L123.224 169.693L119.873 171.105L118.097 166.885L119.39 166.342L119.925 167.301C120.021 166.833 120.214 166.417 120.504 166.068C120.801 165.726 121.232 165.429 121.812 165.191Z" fill="white"/>
<path d="M113.624 168.334L115.756 176.381L110.503 177.77L110.191 176.589L113.973 175.586L113.386 173.379L109.953 174.293L109.648 173.141L113.081 172.227L112.464 169.909L108.682 170.912L108.37 169.731L113.624 168.334Z" fill="white"/>
<path d="M101.832 170.897L102.775 177.934L105.175 177.614L105.339 178.826L99.0083 179.673L98.8448 178.461L101.26 178.135L100.316 171.098L101.832 170.897Z" fill="white"/>
<path d="M87.2982 171.685L86.9415 180L85.4183 179.933L85.775 171.618L87.2982 171.685Z" fill="white"/>
<path d="M80.871 171.291L79.593 179.516L78.0921 179.286L75.1275 172.896L74.2284 178.684L72.7275 178.446L74.0055 170.221L75.5064 170.452L78.4711 176.834L79.3701 171.053L80.871 171.291Z" fill="white"/>
<path d="M61.53 166.602L58.9889 173.23L61.2551 174.1L60.8167 175.244L54.8577 172.955L55.296 171.811L57.5697 172.688L60.1109 166.06L61.53 166.602Z" fill="white"/>
<path d="M50.7858 161.513C51.514 161.914 52.0639 162.427 52.4354 163.043C52.8069 163.66 52.9852 164.344 52.9852 165.079C52.9852 165.815 52.7772 166.558 52.3685 167.301C51.9598 168.044 51.4471 168.616 50.823 169.01C50.2063 169.404 49.5301 169.612 48.8094 169.634C48.0887 169.656 47.3605 169.463 46.6323 169.062C45.9116 168.661 45.3618 168.155 44.9902 167.531C44.6187 166.907 44.433 166.231 44.4404 165.495C44.4478 164.76 44.6559 164.024 45.0645 163.281C45.4732 162.538 45.9859 161.966 46.6026 161.572C47.2193 161.178 47.888 160.97 48.6162 160.948C49.3444 160.926 50.0651 161.119 50.7858 161.513ZM50.132 162.709C49.441 162.33 48.7574 162.248 48.0961 162.479C47.4274 162.709 46.8775 163.222 46.4391 164.024C46.0008 164.827 45.8596 165.562 46.023 166.253C46.1865 166.937 46.61 167.472 47.3085 167.858C47.9995 168.237 48.6831 168.319 49.3518 168.089C50.0205 167.858 50.5778 167.345 51.0162 166.55C51.4546 165.755 51.5957 165.012 51.4323 164.321C51.254 163.63 50.823 163.095 50.132 162.709Z" fill="white"/>
<path d="M40.807 155.025C41.29 155.397 41.6615 155.82 41.9067 156.311C42.1519 156.801 42.241 157.329 42.1742 157.893C42.1073 158.458 41.8472 159.045 41.394 159.639L38.2881 163.726L37.077 162.805L40.1903 158.703C40.5841 158.183 40.7475 157.708 40.6955 157.262C40.6361 156.823 40.3909 156.43 39.9451 156.095C39.5067 155.761 39.0683 155.627 38.6225 155.694C38.1767 155.761 37.7606 156.043 37.3668 156.563L34.2535 160.665L33.0424 159.743L36.1482 155.657C36.6015 155.055 37.0993 154.654 37.6343 154.446C38.1692 154.238 38.7117 154.186 39.2615 154.297C39.8039 154.416 40.324 154.654 40.807 155.025Z" fill="white"/>
<path d="M31.913 147.201C32.5 147.795 32.879 148.442 33.0499 149.118C33.2208 149.794 33.1836 150.485 32.9533 151.169C32.7229 151.852 32.3068 152.491 31.705 153.093C31.1031 153.687 30.4567 154.103 29.7657 154.326C29.0747 154.549 28.3911 154.579 27.7075 154.408C27.0239 154.237 26.3849 153.851 25.7979 153.256C25.0995 152.543 24.6982 151.793 24.6016 150.99C24.5051 150.188 24.7205 149.415 25.2481 148.672L26.4295 149.861C26.1843 150.255 26.0803 150.656 26.1397 151.079C26.1917 151.503 26.4146 151.912 26.8084 152.305C27.3508 152.855 27.9601 153.1 28.6363 153.041C29.3124 152.982 29.9812 152.632 30.6276 151.993C31.274 151.354 31.6307 150.693 31.6976 150.017C31.757 149.341 31.5192 148.731 30.9842 148.182C30.5979 147.788 30.1966 147.557 29.788 147.483C29.3793 147.416 28.9855 147.491 28.6066 147.721L27.4251 146.532C28.1459 146.042 28.9038 145.856 29.6914 145.967C30.479 146.079 31.2146 146.487 31.913 147.201Z" fill="white"/>
<path d="M26.2957 141.204L19.6011 146.145L18.6946 144.919L21.4809 142.869L19.2667 139.867L16.4803 141.918L15.5739 140.692L22.2685 135.75L23.175 136.976L20.2549 139.131L22.4691 142.133L25.3892 139.978L26.2957 141.204Z" fill="white"/>
<path d="M11.6432 121.654L10.447 122.092L8.7157 117.419L9.91197 116.98L11.6432 121.654Z" fill="white"/>
<path d="M8.84946 99.3401L0.557284 100.031L0.430969 98.5154L7.54173 97.921L7.23709 94.2504L8.41851 94.1538L8.84946 99.3401Z" fill="white"/>
<path d="M8.31447 89.5244L0 89.2123L0.200617 83.7808L1.42661 83.8253L1.27801 87.7337L3.5591 87.8154L3.69284 84.2637L4.88169 84.3083L4.74794 87.86L7.14792 87.9491L7.29652 84.0408L8.52252 84.0854L8.31447 89.5244Z" fill="white"/>
<path d="M9.30266 77.5088L2.29592 76.3646L1.90211 78.7646L0.690979 78.5714L1.71636 72.2705L2.92749 72.4711L2.53369 74.8785L9.54043 76.0228L9.30266 77.5088Z" fill="white"/>
<path d="M5.70644 68.1909L3.05383 66.794L3.46993 65.2485L5.97393 67.1878L5.70644 68.1909Z" fill="white"/>
<path d="M13.9838 60.5149C13.7608 61.087 13.4711 61.5477 13.107 61.9118C12.7429 62.2758 12.3268 62.5062 11.8661 62.6176C11.4055 62.7291 10.9076 62.6845 10.3801 62.4913L10.9596 60.9904C11.3311 61.1167 11.6804 61.1019 12.0296 60.9532C12.3714 60.8046 12.6314 60.5074 12.7949 60.069C12.9435 59.6901 12.9658 59.3557 12.8692 59.066C12.7726 58.7762 12.572 58.5681 12.2748 58.4493C11.9553 58.3229 11.6729 58.3304 11.4203 58.4567C11.1677 58.583 10.9225 58.791 10.6847 59.0734C10.4469 59.3557 10.1943 59.6604 9.92683 59.9799C9.48844 60.5 9.04263 60.8492 8.59681 61.0424C8.15099 61.2282 7.6606 61.2207 7.11819 61.0127C6.65751 60.8418 6.30829 60.5817 6.06309 60.2325C5.81789 59.8833 5.68415 59.4746 5.65443 59.0139C5.6247 58.5533 5.70644 58.0629 5.90705 57.5576C6.10767 57.0375 6.37516 56.6214 6.70952 56.2945C7.04388 55.9675 7.42283 55.7595 7.84635 55.6629C8.26245 55.5663 8.70827 55.596 9.16894 55.7595L8.58195 57.2753C8.30703 57.1787 8.02468 57.1861 7.7349 57.3124C7.44512 57.4313 7.22964 57.6765 7.08847 58.0406C6.96215 58.3452 6.93986 58.635 7.01416 58.9099C7.08847 59.1848 7.28165 59.378 7.58629 59.4969C7.84635 59.5935 8.08412 59.5935 8.2996 59.4895C8.51508 59.3855 8.73056 59.2146 8.9386 58.9694C9.14665 58.7242 9.38442 58.4493 9.64448 58.1297C9.92683 57.7954 10.2166 57.5056 10.5138 57.253C10.811 57.0003 11.1454 56.8369 11.5169 56.7626C11.881 56.6808 12.2971 56.7329 12.7578 56.9112C13.1664 57.0672 13.5008 57.3198 13.7683 57.6616C14.0358 58.0034 14.1992 58.4195 14.2512 58.9025C14.3033 59.3855 14.2141 59.9204 13.9838 60.5149Z" fill="white"/>
<path d="M20.6413 46.7234L12.5349 43.833L13.4562 42.4881L19.7645 44.9995L15.2989 39.8058L16.25 38.4238L22.6772 40.7569L18.063 35.7786L18.9918 34.4263L24.5793 40.9946L23.5539 42.4881L17.528 40.3631L21.6592 45.2522L20.6413 46.7234Z" fill="white"/>
<path d="M31.2517 33.46C30.6721 34.0618 30.0406 34.4556 29.3496 34.6562C28.6585 34.8494 27.9527 34.8569 27.2468 34.6637C26.5409 34.4705 25.8796 34.0767 25.2629 33.4897C24.6536 32.9027 24.2375 32.2563 24.0146 31.5578C23.7917 30.8594 23.7694 30.1535 23.9329 29.4551C24.1038 28.7566 24.4753 28.1027 25.0474 27.5009C25.6196 26.9065 26.2511 26.5127 26.9496 26.312C27.648 26.1114 28.3465 26.1114 29.0523 26.3046C29.7582 26.4978 30.4195 26.8916 31.0288 27.4786C31.6381 28.0656 32.0616 28.712 32.2845 29.4105C32.5074 30.1089 32.5371 30.8074 32.3662 31.5132C32.1953 32.2191 31.8238 32.8655 31.2517 33.46ZM30.2709 32.5089C30.8207 31.9368 31.0659 31.2978 31.0214 30.5993C30.9768 29.9009 30.6201 29.2321 29.9588 28.6006C29.305 27.969 28.6214 27.6421 27.9155 27.6198C27.2096 27.5975 26.5855 27.8724 26.0357 28.4445C25.4858 29.0167 25.2332 29.6557 25.2852 30.3615C25.3298 31.0674 25.6864 31.7361 26.3403 32.3677C26.9942 32.9993 27.6777 33.3262 28.3836 33.3411C29.0895 33.3559 29.7211 33.081 30.2709 32.5089Z" fill="white"/>
<path d="M37.4931 27.359L32.3662 20.8055L34.7736 18.9257C35.3012 18.517 35.799 18.2644 36.282 18.1752C36.7649 18.0861 37.2033 18.1307 37.612 18.3015C38.0206 18.4724 38.3624 18.7399 38.6522 19.1114C38.9643 19.5127 39.1426 19.9585 39.1946 20.4563C39.2466 20.9542 39.1055 21.4446 38.7785 21.9424L42.2856 23.6216L40.911 24.699L37.6714 23.0643L36.6758 23.8371L38.6968 26.4228L37.4931 27.359ZM35.9848 22.9529L37.1142 22.0687C37.5154 21.7566 37.7309 21.4297 37.768 21.0879C37.8052 20.7461 37.6937 20.4192 37.4485 20.0997C37.2033 19.7876 36.9135 19.6093 36.5866 19.5647C36.2597 19.5201 35.8882 19.6613 35.4721 19.9808L34.3501 20.8576L35.9848 22.9529Z" fill="white"/>
<path d="M46.0826 21.0359L41.8547 13.8657L43.1625 13.093L44.8714 15.9908L45.8151 11.5326L47.4349 10.5815L46.4689 14.9877L51.7296 17.7146L50.1246 18.6657L46.1197 16.5555L45.8745 17.7072L47.3903 20.278L46.0826 21.0359Z" fill="white"/>
<path d="M66.3151 8.79822L65.9956 7.5648L70.8178 6.30908L71.1373 7.54251L66.3151 8.79822Z" fill="white"/>
</svg>
