<svg width="323" height="479" viewBox="0 0 323 479" fill="none" xmlns="http://www.w3.org/2000/svg">
<path d="M164.089 477.411C162.657 478.843 160.34 478.84 158.911 477.411L2.03049 320.531C1.69394 320.194 1.42475 319.79 1.24093 319.342C1.05453 318.892 0.958679 318.418 0.958679 317.936L0.958771 161.058C0.958771 160.085 1.34185 159.158 2.03051 158.47L158.911 1.589C159.248 1.25244 159.654 0.985719 160.099 0.799317C160.995 0.426513 162.005 0.426473 162.901 0.799277C163.348 0.98309 163.752 1.25244 164.089 1.589L320.969 158.47C321.655 159.156 322.044 160.088 322.041 161.058L322.041 317.931C322.044 318.41 321.946 318.886 321.759 319.337C321.575 319.785 321.306 320.189 320.97 320.525L164.089 477.411ZM313.203 317.941L161.5 166.239L9.79724 317.942L161.5 469.644L313.203 317.941ZM280.406 128.267L280.406 274.789L298.241 292.624L298.239 146.1L280.406 128.267ZM260.741 108.602L260.744 255.127L278.579 272.962L278.579 126.439L260.741 108.602ZM241.075 88.9363L241.078 235.461L258.913 253.296L258.911 106.771L241.075 88.9363ZM221.41 69.271L221.41 215.793L239.245 233.628L239.243 87.1034L221.41 69.271ZM201.745 49.6055L201.747 196.13L219.582 213.965L219.582 67.4432L201.745 49.6055ZM182.079 29.9401L182.079 176.462L199.914 194.297L199.912 47.7726L182.079 29.9401ZM165.158 13.019L165.158 159.541L180.249 174.632L180.249 28.1098L165.158 13.019ZM44.1081 126.748L44.1082 273.27L61.995 255.383L61.9949 108.861L44.1081 126.748ZM63.8254 107.03L63.8253 253.553L81.7096 235.668L81.7122 89.1435L63.8254 107.03ZM83.5452 87.3105L83.5426 233.835L101.429 215.949L101.432 69.4237L83.5452 87.3105ZM103.262 67.5934L103.26 214.118L121.147 196.231L121.149 49.7066L103.262 67.5934ZM122.98 47.8762L122.977 194.401L140.864 176.514L140.866 29.9893L122.98 47.8762ZM42.2804 275.103L42.2804 128.58L24.3961 146.465L24.3936 292.99L42.2804 275.103ZM142.697 28.159L142.694 174.684L157.837 159.541L157.837 13.019L142.697 28.159ZM8.28014 309.103L22.5658 294.817L22.5684 148.292L8.28272 162.578L8.28014 309.103ZM314.717 162.578L300.069 147.93L300.072 294.455L314.717 309.1L314.717 162.578Z" fill="#383838"/>
</svg>
