<svg width="24" height="24" viewBox="0 0 24 24" fill="none" xmlns="http://www.w3.org/2000/svg">
<g clip-path="url(#clip0_49_179)">
<path d="M8.243 7.33992L1.863 8.26492L1.75 8.28792C1.57894 8.33333 1.42299 8.42333 1.29809 8.54872C1.17319 8.67412 1.0838 8.83041 1.03906 9.00165C0.994321 9.17289 0.995827 9.35293 1.04343 9.5234C1.09103 9.69386 1.18302 9.84864 1.31 9.97192L5.932 14.4709L4.842 20.8259L4.829 20.9359C4.81853 21.1128 4.85527 21.2894 4.93545 21.4474C5.01563 21.6055 5.13638 21.7394 5.28534 21.8354C5.43429 21.9315 5.60609 21.9862 5.78315 21.994C5.96021 22.0018 6.13616 21.9625 6.293 21.8799L11.999 18.8799L17.692 21.8799L17.792 21.9259C17.9571 21.9909 18.1364 22.0109 18.3118 21.9837C18.4871 21.9565 18.652 21.8832 18.7896 21.7712C18.9272 21.6592 19.0326 21.5127 19.0948 21.3466C19.1571 21.1804 19.1741 21.0008 19.144 20.8259L18.053 14.4709L22.677 9.97092L22.755 9.88592C22.8664 9.74869 22.9395 9.58438 22.9667 9.40972C22.994 9.23506 22.9744 9.0563 22.9101 8.89165C22.8458 8.72701 22.7389 8.58235 22.6005 8.47244C22.462 8.36252 22.2969 8.29126 22.122 8.26592L15.742 7.33992L12.89 1.55992C12.8075 1.39246 12.6797 1.25144 12.5212 1.15283C12.3627 1.05422 12.1797 1.00195 11.993 1.00195C11.8063 1.00195 11.6233 1.05422 11.4648 1.15283C11.3063 1.25144 11.1785 1.39246 11.096 1.55992L8.243 7.33992Z" fill="white"/>
</g>
<defs>
<clipPath id="clip0_49_179">
<rect width="24" height="24" fill="white"/>
</clipPath>
</defs>
</svg>
