<svg width="20" height="20" viewBox="0 0 20 20" fill="none" xmlns="http://www.w3.org/2000/svg">
<g clip-path="url(#clip0_30_826)">
<path d="M2.5 15V5H6.25C6.91304 5 7.54893 5.26339 8.01777 5.73223C8.48661 6.20107 8.75 6.83696 8.75 7.5C8.75 8.16304 8.48661 8.79893 8.01777 9.26777C7.54893 9.73661 6.91304 10 6.25 10C6.91304 10 7.54893 10.2634 8.01777 10.7322C8.48661 11.2011 8.75 11.837 8.75 12.5C8.75 13.163 8.48661 13.7989 8.01777 14.2678C7.54893 14.7366 6.91304 15 6.25 15H2.5Z" stroke="black" stroke-width="1.5" stroke-linecap="round" stroke-linejoin="round"/>
<path d="M2.5 10H6.25" stroke="black" stroke-width="1.5" stroke-linecap="round" stroke-linejoin="round"/>
<path d="M11.6666 10.8333H17.5C17.5 10.0597 17.1927 9.31788 16.6457 8.7709C16.0987 8.22392 15.3568 7.91663 14.5833 7.91663C13.8097 7.91663 13.0679 8.22392 12.5209 8.7709C11.9739 9.31788 11.6666 10.0597 11.6666 10.8333ZM11.6666 10.8333V12.5C11.7526 13.1238 12.0382 13.7032 12.4807 14.1513C12.9232 14.5994 13.4989 14.8922 14.1216 14.986C14.7444 15.0798 15.3808 14.9695 15.9357 14.6716C16.4905 14.3737 16.9341 13.9042 17.2 13.3333" stroke="black" stroke-width="1.5" stroke-linecap="round" stroke-linejoin="round"/>
<path d="M13.3334 5H15.8334" stroke="black" stroke-width="1.5" stroke-linecap="round" stroke-linejoin="round"/>
</g>
<defs>
<clipPath id="clip0_30_826">
<rect width="20" height="20" fill="white"/>
</clipPath>
</defs>
</svg>
