<svg width="20" height="20" viewBox="0 0 20 20" fill="none" xmlns="http://www.w3.org/2000/svg">
<g clip-path="url(#clip0_30_834)">
<path d="M1.66663 6.66671C1.66663 5.78265 2.01782 4.93481 2.64294 4.30968C3.26806 3.68456 4.1159 3.33337 4.99996 3.33337H15C15.884 3.33337 16.7319 3.68456 17.357 4.30968C17.9821 4.93481 18.3333 5.78265 18.3333 6.66671V13.3334C18.3333 14.2174 17.9821 15.0653 17.357 15.6904C16.7319 16.3155 15.884 16.6667 15 16.6667H4.99996C4.1159 16.6667 3.26806 16.3155 2.64294 15.6904C2.01782 15.0653 1.66663 14.2174 1.66663 13.3334V6.66671Z" stroke="black" stroke-width="1.5" stroke-linecap="round" stroke-linejoin="round"/>
<path d="M8.33337 7.5L12.5 10L8.33337 12.5V7.5Z" stroke="black" stroke-width="1.5" stroke-linecap="round" stroke-linejoin="round"/>
</g>
<defs>
<clipPath id="clip0_30_834">
<rect width="20" height="20" fill="white"/>
</clipPath>
</defs>
</svg>
