<svg width="20" height="20" viewBox="0 0 20 20" fill="none" xmlns="http://www.w3.org/2000/svg">
<g clip-path="url(#clip0_49_117)">
<path d="M1.66663 6.66659C1.66663 5.78253 2.01782 4.93468 2.64294 4.30956C3.26806 3.68444 4.1159 3.33325 4.99996 3.33325H15C15.884 3.33325 16.7319 3.68444 17.357 4.30956C17.9821 4.93468 18.3333 5.78253 18.3333 6.66659V13.3333C18.3333 14.2173 17.9821 15.0652 17.357 15.6903C16.7319 16.3154 15.884 16.6666 15 16.6666H4.99996C4.1159 16.6666 3.26806 16.3154 2.64294 15.6903C2.01782 15.0652 1.66663 14.2173 1.66663 13.3333V6.66659Z" stroke="white" stroke-width="1.5" stroke-linecap="round" stroke-linejoin="round"/>
<path d="M8.33337 7.5L12.5 10L8.33337 12.5V7.5Z" stroke="white" stroke-width="1.5" stroke-linecap="round" stroke-linejoin="round"/>
</g>
<defs>
<clipPath id="clip0_49_117">
<rect width="20" height="20" fill="white"/>
</clipPath>
</defs>
</svg>
